<svg version="1.2" xmlns="http://www.w3.org/2000/svg" viewBox="0 0 130 120" width="130" height="120"><style>.a{opacity:.1;fill:#08190f;stroke:#08190f}.b{opacity:.5;fill:#155125;stroke:#155125}.c{fill:#2f9c7c;stroke:#2f9c7c}.d{fill:#1c72e4;stroke:#1c72e4}.e{opacity:1;fill:#787d4e;stroke:#787d4e}.f{opacity:1;fill:#e53e31;stroke:#e53e31}.g{fill:#ed3e3c;stroke:#ed3e3c}.h{opacity:1;fill:#e74335;stroke:#e74335}.i{opacity:1;fill:#ea463e;stroke:#ea463e}.j{opacity:.5;fill:#7e2323;stroke:#7e2323}.k{opacity:0;stroke:#000}.l{opacity:.6;fill:#0f3d78;stroke:#0f3d78}.m{opacity:.9;fill:#275ba0;stroke:#275ba0}.n{opacity:1;fill:#2f6cc0;stroke:#2f6cc0}.o{opacity:1;fill:#39a356;stroke:#39a356}.p{opacity:.4;fill:#62140e;stroke:#62140e}.q{opacity:.8;fill:#378355;stroke:#378355}.r{opacity:.6;fill:#245d34;stroke:#245d34}.s{opacity:.9;fill:#845e95;stroke:#845e95}.t{opacity:1;fill:#ca4c43;stroke:#ca4c43}.u{opacity:.3;fill:#02293e;stroke:#02293e}.v{opacity:.7;fill:#92332d;stroke:#92332d}</style><path class="a" d="m44.5 30q1 0.5 0 1-1-0.5 0-1z"/><path class="a" d="m83.5 30q1 0.5 0 1-1-0.5 0-1z"/><path class="a" d="m44.5 35q1 0.5 0 1-1-0.5 0-1z"/><path class="a" d="m83.5 35q1 0.5 0 1-1-0.5 0-1z"/><path class="a" d="m73.5 48q1 0.5 0 1-1-0.5 0-1z"/><path class="a" d="m70.5 50q1 0.5 0 1-1-0.5 0-1z"/><path class="a" d="m82.5 54q1 0.5 0 1-1-0.5 0-1z"/><path class="a" d="m83.5 56q1 0.5 0 1-1-0.5 0-1z"/><path class="a" d="m85.5 59q1 0.5 0 1-1-0.5 0-1z"/><path class="a" d="m89.5 59q1 0.5 0 1-1-0.5 0-1z"/><path class="a" d="m102.5 59q1 0.5 0 1-1-0.5 0-1z"/><path class="a" d="m19.5 61q1 0.5 0 1-1-0.5 0-1z"/><path class="a" d="m76.5 61q1 0.5 0 1-1-0.5 0-1z"/><path class="a" d="m108.5 61q1 0.5 0 1-1-0.5 0-1z"/><path class="a" d="m17.5 62q1 0.5 0 1-1-0.5 0-1z"/><path class="a" d="m13.5 65q1 0.5 0 1-1-0.5 0-1z"/><path class="a" d="m50.5 65q1 0.5 0 1-1-0.5 0-1z"/><path class="a" d="m77.5 65l0.5 0.5-3.5 3.5-0.5-0.5z"/><path class="a" d="m114.5 65l3.5 3.5-0.5 0.5-3.5-3.5z"/><path class="a" d="m29.5 67q1 0.5 0 1-1-0.5 0-1z"/><path class="a" d="m34.5 67q1 0.5 0 1-1-0.5 0-1z"/><path class="a" d="m93.5 67q1 0.5 0 1-1-0.5 0-1z"/><path class="a" d="m98.5 67q1 0.5 0 1-1-0.5 0-1z"/><path class="a" d="m10.5 68q1 0.5 0 1-1-0.5 0-1z"/><path class="a" d="m38.5 68q1 0.5 0 1-1-0.5 0-1z"/><path class="a" d="m53.5 68q1 0.5 0 1-1-0.5 0-1z"/><path class="a" d="m89.5 68q1 0.5 0 1-1-0.5 0-1z"/><path class="a" d="m102.5 68q1 0.5 0 1-1-0.5 0-1z"/><path class="a" d="m21.5 70q1 0.5 0 1-1-0.5 0-1z"/><path class="a" d="m85.5 70q1 0.5 0 1-1-0.5 0-1z"/><path class="a" d="m106.5 70q1 0.5 0 1-1-0.5 0-1z"/><path class="a" d="m6.5 74q1 0.5 0 1-1-0.5 0-1z"/><path class="a" d="m57.5 74q1 0.5 0 1-1-0.5 0-1z"/><path class="a" d="m70.5 74q1 0.5 0 1-1-0.5 0-1z"/><path class="a" d="m121.5 74q1 0.5 0 1-1-0.5 0-1z"/><path class="a" d="m15.5 76q1 0.5 0 1-1-0.5 0-1z"/><path class="a" d="m48.5 76q1 0.5 0 1-1-0.5 0-1z"/><path class="a" d="m79.5 76q1 0.5 0 1-1-0.5 0-1z"/><path class="a" d="m112.5 76q1 0.5 0 1-1-0.5 0-1z"/><path class="a" d="m13.5 80q1 0.5 0 1-1-0.5 0-1z"/><path class="a" d="m50.5 80q1 0.5 0 1-1-0.5 0-1z"/><path class="a" d="m68.5 80q1 0.5 0 1-1-0.5 0-1z"/><path class="a" d="m77.5 80q1 0.5 0 1-1-0.5 0-1z"/><path class="a" d="m114.5 80q1 0.5 0 1-1-0.5 0-1z"/><path class="a" d="m51.5 84q1 0.5 0 1-1-0.5 0-1z"/><path class="a" d="m76.5 84q1 0.5 0 1-1-0.5 0-1z"/><path class="a" d="m115.5 84q1 0.5 0 1-1-0.5 0-1z"/><path class="a" d="m12.5 85q1 0.5 0 1-1-0.5 0-1z"/><path class="a" d="m12.5 88q1 0.5 0 1-1-0.5 0-1z"/><path class="a" d="m51.5 89q1 0.5 0 1-1-0.5 0-1z"/><path class="a" d="m76.5 89q1 0.5 0 1-1-0.5 0-1z"/><path class="a" d="m115.5 89q1 0.5 0 1-1-0.5 0-1z"/><path class="a" d="m13.5 93q1 0.5 0 1-1-0.5 0-1z"/><path class="a" d="m50.5 93q1 0.5 0 1-1-0.5 0-1z"/><path class="a" d="m68.5 93q1 0.5 0 1-1-0.5 0-1z"/><path class="a" d="m77.5 93q1 0.5 0 1-1-0.5 0-1z"/><path class="a" d="m114.5 93q1 0.5 0 1-1-0.5 0-1z"/><path class="a" d="m123.5 93q1 0.5 0 1-1-0.5 0-1z"/><path class="a" d="m15.5 97q1 0.5 0 1-1-0.5 0-1z"/><path class="a" d="m48.5 97q1 0.5 0 1-1-0.5 0-1z"/><path class="a" d="m79.5 97q1 0.5 0 1-1-0.5 0-1z"/><path class="a" d="m112.5 97q1 0.5 0 1-1-0.5 0-1z"/><path class="a" d="m6.5 99q1 0.5 0 1-1-0.5 0-1z"/><path class="a" d="m57.5 99q1 0.5 0 1-1-0.5 0-1z"/><path class="a" d="m70.5 99q1 0.5 0 1-1-0.5 0-1z"/><path class="a" d="m121.5 99q1 0.5 0 1-1-0.5 0-1z"/><path class="a" d="m21.5 103q1 0.5 0 1-1-0.5 0-1z"/><path class="a" d="m42.5 103q1 0.5 0 1-1-0.5 0-1z"/><path class="a" d="m85.5 103q1 0.5 0 1-1-0.5 0-1z"/><path class="a" d="m106.5 103q1 0.5 0 1-1-0.5 0-1z"/><path class="a" d="m25.5 105q1 0.5 0 1-1-0.5 0-1z"/><path class="a" d="m38.5 105q1 0.5 0 1-1-0.5 0-1z"/><path class="a" d="m74.5 105l3.5 3.5-0.5 0.5-3.5-3.5z"/><path class="a" d="m89.5 105q1 0.5 0 1-1-0.5 0-1z"/><path class="a" d="m102.5 105q1 0.5 0 1-1-0.5 0-1z"/><path class="a" d="m117.5 105l0.5 0.5-3.5 3.5-0.5-0.5z"/><path class="a" d="m93.5 106q1.3-0.2 1.5 0.5-0.2 0.8-1.5 0.5-1-0.5 0-1z"/><path class="a" d="m97.5 106q1.3-0.2 1.5 0.5-0.2 0.8-1.5 0.5-1-0.5 0-1z"/><path class="a" d="m19.5 112q1 0.5 0 1-1-0.5 0-1z"/><path class="a" d="m44.5 112q1 0.5 0 1-1-0.5 0-1z"/><path class="a" d="m83.5 112q1 0.5 0 1-1-0.5 0-1z"/><path class="a" d="m108.5 112q1 0.5 0 1-1-0.5 0-1z"/><path class="a" d="m89.5 114q1 0.5 0 1-1-0.5 0-1z"/><path class="a" d="m102.5 114q1 0.5 0 1-1-0.5 0-1z"/><path class="b" d="m72.5 49q1 0.5 0 1-1-0.5 0-1z"/><path class="b" d="m70.5 51q1 0.5 0 1-1-0.5 0-1z"/><path class="b" d="m82.5 55q1 0.5 0 1-1-0.5 0-1z"/><path class="b" d="m84.5 58q1 0.5 0 1-1-0.5 0-1z"/><path class="b" d="m75.5 59q1 0.5 0 1-1-0.5 0-1z"/><path class="b" d="m90.5 59q1 0.5 0 1-1-0.5 0-1z"/><path class="b" d="m101.5 59q1 0.5 0 1-1-0.5 0-1z"/><path class="b" d="m86.5 60q1 0.5 0 1-1-0.5 0-1z"/><path class="b" d="m109.5 62q1 0.5 0 1-1-0.5 0-1z"/><path class="b" d="m111.5 63q1 0.5 0 1-1-0.5 0-1z"/><path class="b" d="m91.5 67q1 0.5 0 1-1-0.5 0-1z"/><path class="b" d="m100.5 67q1 0.5 0 1-1-0.5 0-1z"/><path class="b" d="m88.5 68q1 0.5 0 1-1-0.5 0-1z"/><path class="b" d="m103.5 68q1 0.5 0 1-1-0.5 0-1z"/><path class="b" d="m86.5 69q1 0.5 0 1-1-0.5 0-1z"/><path class="b" d="m105.5 69q1 0.5 0 1-1-0.5 0-1z"/><path class="b" d="m83.5 71q1 0.5 0 1-1-0.5 0-1z"/><path class="b" d="m108.5 71q1 0.5 0 1-1-0.5 0-1z"/><path class="b" d="m119.5 71q1 0.5 0 1-1-0.5 0-1z"/><path class="b" d="m80.5 74q1 0.5 0 1-1-0.5 0-1z"/><path class="b" d="m111.5 74q1 0.5 0 1-1-0.5 0-1z"/><path class="b" d="m70.5 75q1 0.5 0 1-1-0.5 0-1z"/><path class="b" d="m78.5 77q1 0.5 0 1-1-0.5 0-1z"/><path class="b" d="m113.5 77q1 0.5 0 1-1-0.5 0-1z"/><path class="b" d="m122.5 77q1 0.5 0 1-1-0.5 0-1z"/><path class="b" d="m77.5 79q1 0.5 0 1-1-0.5 0-1z"/><path class="b" d="m114.5 79q1 0.5 0 1-1-0.5 0-1z"/><path class="b" d="m68.5 81q1 0.5 0 1-1-0.5 0-1z"/><path class="b" d="m123.5 81q1 0.5 0 1-1-0.5 0-1z"/><path class="b" d="m76.5 82q1 0.5 0 1-1-0.5 0-1z"/><path class="b" d="m115.5 82q1 0.5 0 1-1-0.5 0-1z"/><path class="b" d="m76.5 91q1 0.5 0 1-1-0.5 0-1z"/><path class="b" d="m68.5 92q1 0.5 0 1-1-0.5 0-1z"/><path class="b" d="m123.5 92q1 0.5 0 1-1-0.5 0-1z"/><path class="b" d="m77.5 94q1 0.5 0 1-1-0.5 0-1z"/><path class="b" d="m114.5 94q1 0.5 0 1-1-0.5 0-1z"/><path class="b" d="m78.5 96q1 0.5 0 1-1-0.5 0-1z"/><path class="b" d="m113.5 96q1 0.5 0 1-1-0.5 0-1z"/><path class="b" d="m80.5 99q1 0.5 0 1-1-0.5 0-1z"/><path class="b" d="m111.5 99q1 0.5 0 1-1-0.5 0-1z"/><path class="b" d="m71.5 100q1 0.5 0 1-1-0.5 0-1z"/><path class="b" d="m72.5 102q1 0.5 0 1-1-0.5 0-1z"/><path class="b" d="m83.5 102q1 0.5 0 1-1-0.5 0-1z"/><path class="b" d="m108.5 102q1 0.5 0 1-1-0.5 0-1z"/><path class="b" d="m119.5 102q1 0.5 0 1-1-0.5 0-1z"/><path class="b" d="m86.5 104q1 0.5 0 1-1-0.5 0-1z"/><path class="b" d="m105.5 104q1 0.5 0 1-1-0.5 0-1z"/><path class="b" d="m88.5 105q1 0.5 0 1-1-0.5 0-1z"/><path class="b" d="m103.5 105q1 0.5 0 1-1-0.5 0-1z"/><path class="b" d="m80.5 110q1 0.5 0 1-1-0.5 0-1z"/><path class="b" d="m111.5 110q1 0.5 0 1-1-0.5 0-1z"/><path class="b" d="m82.5 111q1 0.5 0 1-1-0.5 0-1z"/><path class="b" d="m109.5 111q1 0.5 0 1-1-0.5 0-1z"/><path class="b" d="m84.5 112q1 0.5 0 1-1-0.5 0-1z"/><path class="b" d="m107.5 112q1 0.5 0 1-1-0.5 0-1z"/><path class="b" d="m105.5 113q1 0.5 0 1-1-0.5 0-1z"/><path class="b" d="m90.5 114q1 0.5 0 1-1-0.5 0-1z"/><path class="b" d="m101.5 114q1 0.5 0 1-1-0.5 0-1z"/><path class="c" d="m68.5 83l0.5 0.5v6q-0.5 1-1 0v-6z"/><path fill-rule="evenodd" class="d" d="m28.5 60h7l1 1h4l1 1h1l1 1h1l2 2q1.3 0 1.5 0c0 0.9 0 1.9 0 2h2.5l1.5 1.5v1l3 3v1l1 1v1l1 1v1l1 1v3l3.5 3.5 1-1h4.5v4.5l-1.5 1.5-1-1h-2l-1 1h-1l-1 1q-1.2 0-1.5 0v4.5l-1 1v1l-1 1v1l-1 1v1l-1 1v1l-2.5 2.5h-1l-4 4h-1l-2 2h-2l-1 1h-2l-1 1h-11l-1-1h-2l-1-1h-2l-2-2h-1l-4-4h-1l-2.5-2.5v-1l-1-1v-1l-1-1v-1l-1-1v-2l-1-1v-3l-1-1v-8l1-1v-2l1-1v-2l1-1v-2l4-4v-1l1.5-1.5h1l3-3h2l1-1h1l2-2h4zm-0.5 6l-1 1h-1l-1 1h-2l-1 1h-1l-6 6v1l-1 1v1l-2 2v2l-1 1v9l1 1v2l1 1v1l1 1v1l6 5h1l2 2h1l1 1h2l1 1h9l1-1h2l1-1h1l2-2h1l5-5v-1l1-1v-1l1-1v-3l1-1v-8l-1-1v-1l-1-1v-1l-1-1v-1l-1-1v-1l-5-6h-1l-1-1h-1l-1-1h-2l-1-1z"/><path class="e" d="m77.5 48l2.5 2.5v1l1.5 1.5q1.3-0.2 1.5 0.5l-1.5 1.5-1.5-1.5v-1l-2-2v-1l-1-1z"/><path class="e" d="m71.5 51q0.8 0.3 0.5 1.5l2 2v1l1 1v1l1 1-0.5 0.5q-1.2 0-1.5 0 0-0.2 0-1.5l-1-1v-1l-1-1v-1l-1-1q-0.2-1.2 0.5-1.5z"/><path class="f" d="m64.5 7q1 0.5 0 1-1-0.5 0-1z"/><path class="f" d="m53.5 10q1.3-0.2 1.5 0.5-0.2 0.8-1.5 0.5-1-0.5 0-1z"/><path class="f" d="m60.5 10q1 0.5 0 1-1-0.5 0-1z"/><path class="f" d="m67.5 10q1 0.5 0 1-1-0.5 0-1z"/><path class="f" d="m73.5 10q1.3-0.2 1.5 0.5-0.2 0.8-1.5 0.5-1-0.5 0-1z"/><path class="f" d="m48.5 12q1 0.5 0 1-1-0.5 0-1z"/><path class="f" d="m51.5 12l1 1h1l1-1h2q1 0.5 0 1h-2l-2 2q-0.7-0.2-0.5-1.5l-1-1z"/><path class="f" d="m71.5 12h2l1 1h1l1-1 0.5 0.5-1 1q0.3 1.3-0.5 1.5l-2-2h-2q-1-0.5 0-1z"/><path class="f" d="m79.5 12q1 0.5 0 1-1-0.5 0-1z"/><path class="f" d="m46.5 14l1 1 1-1h1l1.5 1.5-0.5 0.5-1-1q-1.2 0-1.5 0 0 0.3 0 1.5l-0.5 0.5-1-1-1.5 1.5 1 1-0.5 0.5-1-1h-1l-2 2-0.5-0.5 2.5-2.5h1l1.5-1.5q-0.2-1.2 0.5-1.5z"/><path class="f" d="m78.5 14h1l1 1 1-1 0.5 0.5v1l1.5 1.5h1l2.5 2.5-0.5 0.5-2-2q-1.2-0.2-1.5 0.5l1 1v1q-0.5 1-1 0v-1l-1-1 1-1-1.5-1.5-1 1-0.5-0.5q0-1.2 0-1.5-0.2 0-1.5 0l-1 1-0.5-0.5z"/><path class="f" d="m78.5 17q1 0.5 0 1-1-0.5 0-1z"/><path class="f" d="m44.5 20q1 0.5 0 1-1-0.5 0-1z"/><path class="f" d="m43.5 22q1.3-0.2 1.5 0.5l-0.5 0.5q-1.2 0-1.5 0 0 0.3 0 1.5l-0.5 0.5q-0.7-0.2-0.5-1.5z"/><path class="f" d="m83.5 22h1l1.5 1.5q0.3 1.3-0.5 1.5l-0.5-0.5q0-1.2 0-1.5-0.2 0-1.5 0l-0.5-0.5z"/><path class="f" d="m40.5 26l0.5 0.5q0 1.3 0 1.5-0.2 0-1.5 0l-0.5-0.5z"/><path class="f" d="m87.5 26l1.5 1.5-0.5 0.5q-1.2 0-1.5 0 0-0.2 0-1.5z"/><path class="f" d="m42.5 28l0.5 0.5-1 1q0.3 1.3-0.5 1.5-0.7-0.2-0.5-1.5z"/><path class="f" d="m85.5 28l1.5 1.5v1q-0.5 1-1 0v-1l-1-1z"/><path class="f" d="m39.5 31q1 0.5 0 1-1-0.5 0-1z"/><path class="f" d="m88.5 31l0.5 0.5-1 1q0 1.3 0 1.5h-0.5-2l-0.5-0.5 1.5-1.5h1z"/><path class="f" d="m41.5 33q1 0.5 0 1-1-0.5 0-1z"/><path class="f" d="m40.5 37q1 0.5 0 1-1-0.5 0-1z"/><path class="f" d="m87.5 37q0.8 0.3 0.5 1.5-0.5 1-1 0-0.2-1.2 0.5-1.5z"/><path class="f" d="m41.5 40q1 0.5 0 1-1-0.5 0-1z"/><path class="f" d="m86.5 40q1 0.5 0 1-1-0.5 0-1z"/><path class="f" d="m42.5 42l0.5 0.5q0 1.3 0 1.5 0.3 0 1.5 0l0.5 0.5-2 2 1 1q0.3 1.3-0.5 1.5-0.7-0.2-0.5-1.5l-1-1v-4z"/><path class="f" d="m85.5 42q0.8 0.3 0.5 1.5l1 1v1l-0.5 0.5-1-1h-2l-0.5-0.5 0.5-0.5q1.3 0 1.5 0 0-0.2 0-1.5z"/><path class="f" d="m45.5 46q1 0.5 0 1-1-0.5 0-1z"/><path fill-rule="evenodd" class="f" d="m82.5 46l1 1q1.3 0 1.5 0 0 0.3 0 1.5l-0.5 0.5-1-1-0.5 0.5q0 1.3 0 1.5h-3q0-0.2 0-1.5zm0.5 1q-1 1 0 1 1 0 0-1zm-1 1q-1 1 0 1 1 0 0-1z"/><path class="f" d="m46.5 48l1 1h1l1-1 0.5 0.5-1 1 1 1-0.5 0.5-1-1h-1l-1.5-1.5z"/><path class="f" d="m45.5 50q1 0.5 0 1-1-0.5 0-1z"/><path class="f" d="m53.5 52h1l1.5 1.5-1 1v1l1 1-0.5 0.5-1.5-1.5v-1l1-1-0.5-0.5h-1l-1 1q-1.2-0.2-1.5 0.5l1 1-0.5 0.5-1-1h-1l-1.5-1.5 0.5-0.5 1 1h1l1-1h1z"/><path class="f" d="m46.5 53q1 0.5 0 1-1-0.5 0-1z"/><path class="f" d="m58.5 55l2.5 2.5-0.5 0.5h-2l-1.5-1.5z"/><path class="f" d="m67.5 55q1 0.5 0 1-1-0.5 0-1z"/><path class="f" d="m48.5 57h1l1.5 1.5-1.5 1.5h-1l-1 1h-1q-1-0.5 0-1h1l1-1q1.3 0.3 1.5-0.5l-0.5-0.5q-1.2 0.3-1.5-0.5z"/><path class="f" d="m67.5 57q1.3-0.2 1.5 0.5-0.2 0.8-1.5 0.5-1-0.5 0-1z"/><path class="f" d="m46.5 58q1 0.5 0 1-1-0.5 0-1z"/><path class="f" d="m62.5 58q1.3-0.2 1.5 0.5-0.2 0.8-1.5 0.5-1-0.5 0-1z"/><path class="f" d="m49.5 61q1 0.5 0 1-1-0.5 0-1z"/><path class="g" d="m57.5 7q1 0.5 0 1-1-0.5 0-1z"/><path class="g" d="m70.5 7q1 0.5 0 1-1-0.5 0-1z"/><path class="g" d="m53.5 8l1.5 1.5-0.5 0.5h-2l-0.5-0.5z"/><path class="g" d="m74.5 8l1.5 1.5-0.5 0.5h-2l-0.5-0.5z"/><path class="g" d="m60.5 9q1.3-0.2 1.5 0.5-0.2 0.8-1.5 0.5-1-0.5 0-1z"/><path class="g" d="m66.5 9q1.3-0.2 1.5 0.5-0.2 0.8-1.5 0.5-1-0.5 0-1z"/><path class="g" d="m58.5 10q1 0.5 0 1-1-0.5 0-1z"/><path class="g" d="m69.5 10q1 0.5 0 1-1-0.5 0-1z"/><path class="g" d="m47.5 13q1 0.5 0 1-1-0.5 0-1z"/><path class="g" d="m80.5 13q1 0.5 0 1-1-0.5 0-1z"/><path class="g" d="m78.5 16h1l1.5 1.5q-0.2 0.8-1.5 0.5l-1.5-1.5z"/><path class="g" d="m47.5 17q1 0.5 0 1-1-0.5 0-1z"/><path class="g" d="m41.5 20l1.5 1.5q0 1.3 0 1.5 0.3 0 1.5 0l0.5 0.5q-0.2 0.8-1.5 0.5l-2.5-2.5q-0.2-1.2 0.5-1.5z"/><path class="g" d="m86.5 20q1 0.5 0 1-1-0.5 0-1z"/><path class="g" d="m85.5 22l0.5 0.5-1.5 1.5q-1.2 0.3-1.5-0.5 0.3-0.7 1.5-0.5z"/><path class="g" d="m39.5 28l0.5 0.5v2 0.5h-0.5q-1.2 0-1.5 0v0.5 2q-0.5 1-1 0v-2l2-2q-0.2-1.2 0.5-1.5z"/><path class="g" d="m88.5 28q0.8 0.3 0.5 1.5l2 2v2q-0.5 1-1 0v-2-0.5h-0.5q-1.2 0-1.5 0v-0.5-2z"/><path class="g" d="m42.5 33q1 0.5 0 1-1-0.5 0-1z"/><path class="g" d="m41.5 38q0.8 0.3 0.5 1.5l-1 1 1 1q0 1.3 0 1.5-0.2 0-1.5 0l-1 1-0.5-0.5v-3z"/><path class="g" d="m87 40h0.5q1.3 0 1.5 0v0.5 3l-0.5 0.5-1.5-1.5v-2z"/><path class="g" d="m44 47h0.5 2l0.5 0.5-1 1q0.3 1.3-0.5 1.5l-1.5-1.5q0-1.2 0-1.5z"/><path class="g" d="m83.5 48q1 0.5 0 1-1-0.5 0-1z"/><path class="g" d="m50.5 49q0.8 0.3 0.5 1.5-0.5 1-1 0-0.2-1.2 0.5-1.5z"/><path class="g" d="m52.5 50q1 0.5 0 1-1-0.5 0-1z"/><path class="g" d="m47.5 51q1.3-0.2 1.5 0.5-0.2 0.8-1.5 0.5-1-0.5 0-1z"/><path class="g" d="m60.5 54l1 1h4 0.5v0.5 2 0.5q-0.2 0-1.5 0l-2-2h-2-0.5q0-0.2 0-1.5z"/><path class="g" d="m50.5 55q0.8 0.3 0.5 1.5-0.5 1-1 0-0.2-1.2 0.5-1.5z"/><path class="g" d="m52.5 56q1.3-0.2 1.5 0.5-0.2 0.8-1.5 0.5-1-0.5 0-1z"/><path class="g" d="m47.5 57q1 0.5 0 1-1-0.5 0-1z"/><path class="g" d="m56.5 58q1 0.5 0 1-1-0.5 0-1z"/><path fill-rule="evenodd" class="h" d="m61.5 6l1 1q1.3-0.2 1.5 0.5l-1 1 0.5 0.5q1.3 0 1.5 0 0-0.2 0-1.5l1.5-1.5 2 2h2l1-1q1.3 0 1.5 0v4q0.3 0 1.5 0l1-1h1l1 1q1.3-0.2 1.5 0.5l-0.5 0.5h-2l-0.5 0.5 0.5 0.5h2l0.5 0.5-0.5 0.5h-2l-1-1h-1l-1 1-0.5-0.5 1-1-1.5-1.5-2 2-1-1q-1.2 0-1.5 0v-3q-0.2 0-1.5 0l-0.5 0.5 1 1-0.5 0.5h-5l-0.5-0.5 1-1-0.5-0.5q-1.2 0-1.5 0v3q-0.2 0-1.5 0l-1 1-2-2-1.5 1.5 1 1-0.5 0.5-1-1h-1l-1 1h-2q-1-0.5 0-1h2l0.5-0.5-0.5-0.5h-2l-0.5-0.5q0.3-0.7 1.5-0.5l1-1h1l1 1q1.3 0 1.5 0v-4q0.3 0 1.5 0l1 1h1l1-1h1zm-2.5 4q-1 1 0 1 1 0 0-1zm11 0q-1 1 0 1 1 0 0-1z"/><path class="h" d="m46.5 13l2 2q1.3 0 1.5 0v0.5 2 0.5h-0.5q-1.2 0-1.5 0v-0.5-2l-1.5-1.5-1 1-0.5-0.5z"/><path class="h" d="m81.5 13l1.5 1.5-0.5 0.5-1-1-2 2q-1.2 0.3-1.5-0.5 0.3-0.7 1.5-0.5z"/><path class="h" d="m51.5 15q1 0.5 0 1-1-0.5 0-1z"/><path class="h" d="m76.5 15q1 0.5 0 1-1-0.5 0-1z"/><path fill-rule="evenodd" class="h" d="m46.5 16l0.5 0.5v2l-1 1v2.5h-3v-3.5l-1-1 0.5-0.5 2 2q1.3 0 1.5 0v-2.5zm-1.5 4q-1 1 0 1 1 0 0-1z"/><path class="h" d="m81.5 16l0.5 0.5v2l1 1-0.5 0.5-1.5-1.5v-2z"/><path fill-rule="evenodd" class="h" d="m85.5 17l0.5 0.5-1 1v2.5q0.3 0 1.5 0l1 1q1.3 0 1.5 0v4.5l-0.5 0.5-1-1-0.5 0.5v1l1 1v3.5c0.9 0 1.9 0 2 0q0 0.3 0 1.5l1 1-1 1v3l-1.5 1.5h-3l-0.5 0.5 0.5 0.5q1.3 0 1.5 0v2.5l-0.5 0.5-0.5-0.5q0.3-1.2-0.5-1.5l-2 2-0.5-0.5 1-1v-2l1-1v-5.5h3c0-0.8 0-1.8 0-2q-0.2 0-1.5 0l-1 1-0.5-0.5v-3l1-1-1-1 1-1v-1l1-1v-1l-1.5-1.5h-3l-0.5-0.5 0.5-0.5q1.3 0 1.5 0v-2.5zm1.5 12q-1 0-1 2 1 1 1 0 0-2 0-2zm1 8q-1 0-1 2 1 1 1 0 0-2 0-2z"/><path fill-rule="evenodd" class="h" d="m39 22h2.5l0.5 0.5-1 1v1l1 1v1l1 1-1 1 1 1v3.5q-0.2 0-1.5 0-1 0.5 0 1 1.3 0 1.5 0v5.5l1 1q0 1.3 0 1.5-0.2 0-1.5 0l-0.5-0.5 1-1-1-1q0.3-1.2-0.5-1.5l-3 3-0.5-0.5 1-1-1-1v-2l-1-1v-1l1-1q0-1.2 0-1.5c0.9 0 1.9 0 2 0v-3.5l1-1v-1l-0.5-0.5-1 1-0.5-0.5zm3 7q-1 0-1 2 1 1 1 0 0-2 0-2zm-1 8q-1 1 0 1 1 0 0-1z"/><path class="h" d="m44.5 24l0.5 0.5-1.5 1.5-0.5-0.5z"/><path class="h" d="m83.5 24l1.5 1.5-0.5 0.5-1.5-1.5z"/><path class="h" d="m38.5 28q0.8 0.3 0.5 1.5-0.5 1-1 0-0.2-1.2 0.5-1.5z"/><path class="h" d="m89.5 29q1 0.5 0 1-1-0.5 0-1z"/><path class="h" d="m41.5 43l0.5 0.5v3l0.5 0.5 2-2 0.5 0.5q0 1.3 0 1.5-0.2 0-1.5 0l-1 1-1.5-1.5v-3z"/><path class="h" d="m44.5 43q1 0.5 0 1-1-0.5 0-1z"/><path class="h" d="m46.5 45q1 0.5 0 1-1-0.5 0-1z"/><path class="h" d="m81.5 45q1 0.5 0 1-1-0.5 0-1z"/><path class="h" d="m83 45h0.5 2l1.5 1.5-1.5 1.5-1-1q-1.2 0-1.5 0v-0.5q0-1.2 0-1.5z"/><path class="h" d="m47.5 47q1 0.5 0 1-1-0.5 0-1z"/><path class="h" d="m80.5 47l1.5 1.5-0.5 0.5-1.5-1.5z"/><path fill-rule="evenodd" class="h" d="m43.5 49l2 2 1-1 0.5 0.5q0 1.3 0 1.5h5.5l1.5 1.5v2l1 1-1.5 1.5h-2.5q0-0.2 0-1.5l1-1-1.5-1.5h-1l-1-1h-1l-1-1h-2.5q0-0.2 0-1.5l-1-1zm8.5 4q-1 1 0 1 1 0 1 0 0-1-1-1zm1 3q-1 1 0 1 1 0 1 0 0-1-1-1z"/><path class="h" d="m83.5 49q1 0.5 0 1-1-0.5 0-1z"/><path class="h" d="m82.5 51q1 0.5 0 1-1-0.5 0-1z"/><path fill-rule="evenodd" class="h" d="m56.5 53h1l3 3h2l2 2q1.3 0 1.5 0v-2.5l0.5-0.5 1 1 2-2q1.3 0 1.5 0 0 0.3 0 1.5l1 1v2.5h-7.5l-1-1q-1.2 0-1.5 0c0 0.9 0 1.9 0 2q-0.2 0-1.5 0l-1.5-1.5 0.5-0.5q1.3 0.3 1.5-0.5l-2.5-2.5-1.5 1.5 1 1v1l-0.5 0.5-1.5-1.5v-2l-1-1zm13.5 2q-1 1 0 1 1 0 0-1zm-2 2q-1 1 0 1 1 0 1 0 0-1-1-1z"/><path class="h" d="m47.5 54l1 1q1.3-0.2 1.5 0.5l-1.5 1.5q-1.2 0-1.5 0v-0.5-2z"/><path class="h" d="m47.5 58h2l1.5 1.5-0.5 0.5-1-1h-2q-1-0.5 0-1z"/><path class="h" d="m45.5 60q1 0.5 0 1-1-0.5 0-1z"/><path class="h" d="m48.5 60l0.5 0.5q0 1.3 0 1.5-0.2 0-1.5 0l-0.5-0.5z"/><path class="i" d="m62.5 6h3l0.5 0.5-0.5 0.5h-3q-1-0.5 0-1z"/><path class="i" d="m58.5 7q1 0.5 0 1-1-0.5 0-1z"/><path class="i" d="m68.5 7q1.3-0.2 1.5 0.5-0.2 0.8-1.5 0.5-1-0.5 0-1z"/><path fill-rule="evenodd" class="i" d="m52.5 8l0.5 0.5-2.5 2.5q-1.2-0.2-1.5 0.5l0.5 0.5q1.3-0.2 1.5 0.5-0.2 0.8-1.5 0.5l-1 1-1-1q-1.2 0.3-1.5-0.5 0.3-0.7 1.5-0.5l2-2h1zm-3.5 4q-1 1 0 1 1 0 0-1z"/><path class="i" d="m54.5 8q1 0.5 0 1-1-0.5 0-1z"/><path class="i" d="m63.5 8q1.3-0.2 1.5 0.5-0.2 0.8-1.5 0.5-1-0.5 0-1z"/><path class="i" d="m73.5 8q1 0.5 0 1-1-0.5 0-1z"/><path fill-rule="evenodd" class="i" d="m75.5 8l2 2h1l2.5 2.5-1.5 1.5-1-1q-1.2 0.3-1.5-0.5l0.5-0.5q1.3 0.3 1.5-0.5-0.2-0.7-1.5-0.5l-2.5-2.5zm4.5 4q-1 1 0 1 1 0 0-1z"/><path class="i" d="m55.5 11q1 0.5 0 1-1-0.5 0-1z"/><path class="i" d="m60.5 11h7l0.5 0.5-0.5 0.5h-7q-1-0.5 0-1z"/><path class="i" d="m72.5 11q1 0.5 0 1-1-0.5 0-1z"/><path class="i" d="m58.5 12q1 0.5 0 1-1-0.5 0-1z"/><path class="i" d="m69.5 12q1 0.5 0 1-1-0.5 0-1z"/><path class="i" d="m55.5 13q1.3-0.2 1.5 0.5-0.2 0.8-1.5 0.5-1-0.5 0-1z"/><path class="i" d="m71.5 13q1.3-0.2 1.5 0.5-0.2 0.8-1.5 0.5-1-0.5 0-1z"/><path class="i" d="m50.5 14q1.3-0.2 1.5 0.5-0.2 0.8-1.5 0.5-1-0.5 0-1z"/><path class="i" d="m53.5 14q1 0.5 0 1-1-0.5 0-1z"/><path class="i" d="m74.5 14q1 0.5 0 1-1-0.5 0-1z"/><path class="i" d="m76.5 14q1.3-0.2 1.5 0.5-0.2 0.8-1.5 0.5-1-0.5 0-1z"/><path class="i" d="m44.5 15q1.3-0.2 1.5 0.5l-1 1 1 1-1.5 1.5-0.5-0.5 1-1-0.5-0.5q-1.2 0.3-1.5-0.5z"/><path class="i" d="m82.5 15h1l1.5 1.5-0.5 0.5q-1.2-0.2-1.5 0.5l1 1-0.5 0.5-1.5-1.5 1-1-1-1z"/><path class="i" d="m50.5 16q1 0.5 0 1-1-0.5 0-1z"/><path class="i" d="m77.5 16q1 0.5 0 1-1-0.5 0-1z"/><path class="i" d="m41.5 18l1.5 1.5v1q-0.5 1-1 0v-1l-1-1z"/><path class="i" d="m47.5 18q0.8 0.3 0.5 1.5l-1.5 1.5-0.5-0.5v-1z"/><path class="i" d="m79.5 18h1l2.5 2.5q-0.2 0.8-1.5 0.5l-2.5-2.5z"/><path class="i" d="m86.5 18l0.5 0.5-1 1q0.3 1.3-0.5 1.5-0.7-0.2-0.5-1.5z"/><path class="i" d="m40.5 20q0.8 0.3 0.5 1.5-0.5 1-1 0-0.2-1.2 0.5-1.5z"/><path class="i" d="m87.5 20q0.8 0.3 0.5 1.5-0.5 1-1 0-0.2-1.2 0.5-1.5z"/><path class="i" d="m45.5 22q0.8 0.3 0.5 1.5-0.5 1-1 0-0.2-1.2 0.5-1.5z"/><path class="i" d="m82.5 22q0.8 0.3 0.5 1.5-0.5 1-1 0-0.2-1.2 0.5-1.5z"/><path class="i" d="m41.5 23l0.5 0.5q-0.2 1.3 0.5 1.5l1-1 0.5 0.5-1 1 1 1-0.5 0.5q-1.2 0-1.5 0 0-0.2 0-1.5l-1-1q-0.2-1.2 0.5-1.5z"/><path class="i" d="m86.5 23q0.8 0.3 0.5 1.5l-1 1q0 1.3 0 1.5-0.2 0-1.5 0l-0.5-0.5 1-1-1-1 0.5-0.5 1 1 0.5-0.5q-0.2-1.2 0.5-1.5z"/><path class="i" d="m38.5 25l0.5 0.5v2q-0.5 1-1 0v-2z"/><path class="i" d="m89.5 25l0.5 0.5v3l1 1v1l-1.5 1.5-0.5-0.5 1-1v-1l-1-1v-3z"/><path class="i" d="m37.5 29q0.8 0.3 0.5 1.5l1 1-0.5 0.5-1.5-1.5q-0.2-1.2 0.5-1.5z"/><path class="i" d="m90.5 35l0.5 0.5v2q-0.5 1-1 0v-2z"/><path class="i" d="m37.5 36q0.8 0.3 0.5 1.5-0.5 1-1 0-0.2-1.2 0.5-1.5z"/><path class="i" d="m38.5 39q1 0.5 0 1-1-0.5 0-1z"/><path class="i" d="m43.5 39l0.5 0.5-1.5 1.5-0.5-0.5z"/><path class="i" d="m84.5 39l1.5 1.5-0.5 0.5-1.5-1.5z"/><path class="i" d="m89.5 39l0.5 0.5v2q-0.5 1-1 0v-2z"/><path class="i" d="m38.5 41q1 0.5 0 1-1-0.5 0-1z"/><path class="i" d="m44.5 41q0.8 0.3 0.5 1.5l-1.5 1.5-0.5-0.5v-1z"/><path class="i" d="m83.5 41q0.8 0.3 0.5 1.5l1 1-0.5 0.5-1.5-1.5q-0.2-1.2 0.5-1.5z"/><path class="i" d="m40.5 43q0.8 0.3 0.5 1.5-0.5 1-1 0-0.2-1.2 0.5-1.5z"/><path class="i" d="m87.5 43l0.5 0.5v2q-0.5 1-1 0v-2z"/><path class="i" d="m45.5 44l0.5 0.5q0 1.3 0 1.5 0.3 0 1.5 0l0.5 0.5q-0.2 0.8-1.5 0.5l-1.5-1.5q-0.2-1.2 0.5-1.5z"/><path class="i" d="m82.5 44q0.8 0.3 0.5 1.5l-1 1 1 1-0.5 0.5-1-1q-1.2 0.3-1.5-0.5l0.5-0.5q1.3 0 1.5 0 0-0.2 0-1.5z"/><path class="i" d="m41.5 47l1.5 1.5-0.5 0.5-1.5-1.5z"/><path class="i" d="m86.5 47l0.5 0.5-3.5 3.5h-2l-0.5-0.5 0.5-0.5h2z"/><path fill-rule="evenodd" class="i" d="m47.5 48h1l1 1 1-1 1.5 1.5q0 1.3 0 1.5h2.5l1 1q1.3-0.2 1.5 0.5-0.2 0.8-1.5 0.5l-1 1-0.5-0.5 1-1-0.5-0.5h-5l-1-1h-1l-1.5-1.5zm0.5 1q-1 1 0 1 1 0 1 0 0-1-1-1zm3 0l-2 2c0.7 0 2 0 2 0q0 0 0-1z"/><path class="i" d="m44.5 49l0.5 0.5-1.5 1.5-0.5-0.5z"/><path class="i" d="m45.5 52h1l2.5 2.5-0.5 0.5-2-2q-1.2 0.3-1.5-0.5z"/><path class="i" d="m59.5 54q1 0.5 0 1-1-0.5 0-1z"/><path class="i" d="m61.5 54h7l1.5 1.5-0.5 0.5-1-1h-7q-1-0.5 0-1z"/><path class="i" d="m55.5 55q1 0.5 0 1-1-0.5 0-1z"/><path class="i" d="m46.5 56q0.8 0.3 0.5 1.5l-1 1 0.5 0.5q1.3-0.2 1.5 0.5l-0.5 0.5h-2-0.5q0-0.2 0-1.5l1-1q-0.2-1.2 0.5-1.5z"/><path class="i" d="m49.5 56l2.5 2.5v1l-1.5 1.5h-1q-1-0.5 0-1 1.3 0 1.5 0 0-0.2 0-1.5l-2-2z"/><path class="i" d="m54.5 57q1.3 0 1.5 0 0 0.3 0 1.5l-0.5 0.5-1.5-1.5z"/><path class="i" d="m72.5 57q1 0.5 0 1-1-0.5 0-1z"/><path class="i" d="m58.5 58l1.5 1.5-0.5 0.5-1.5-1.5z"/><path class="i" d="m63.5 59q1 0.5 0 1-1-0.5 0-1z"/><path class="i" d="m66.5 59q1.3-0.2 1.5 0.5-0.2 0.8-1.5 0.5-1-0.5 0-1z"/><path class="i" d="m48.5 62q1.3-0.2 1.5 0.5-0.2 0.8-1.5 0.5-1-0.5 0-1z"/><path class="j" d="m58.5 5q1 0.5 0 1-1-0.5 0-1z"/><path class="j" d="m69.5 5q1 0.5 0 1-1-0.5 0-1z"/><path class="j" d="m52.5 7q1 0.5 0 1-1-0.5 0-1z"/><path class="j" d="m75.5 7q1 0.5 0 1-1-0.5 0-1z"/><path class="j" d="m50.5 8q1 0.5 0 1-1-0.5 0-1z"/><path class="j" d="m77.5 8q1 0.5 0 1-1-0.5 0-1z"/><path class="j" d="m59.5 13q1 0.5 0 1-1-0.5 0-1z"/><path class="j" d="m68.5 13q1 0.5 0 1-1-0.5 0-1z"/><path class="j" d="m41.5 16q1 0.5 0 1-1-0.5 0-1z"/><path class="j" d="m52.5 16q1 0.5 0 1-1-0.5 0-1z"/><path class="j" d="m75.5 16q1 0.5 0 1-1-0.5 0-1z"/><path class="j" d="m86.5 16q1 0.5 0 1-1-0.5 0-1z"/><path class="j" d="m39.5 19q1 0.5 0 1-1-0.5 0-1z"/><path class="j" d="m88.5 19q1 0.5 0 1-1-0.5 0-1z"/><path class="j" d="m38.5 21q1 0.5 0 1-1-0.5 0-1z"/><path class="j" d="m89.5 21q1 0.5 0 1-1-0.5 0-1z"/><path class="j" d="m45.5 25q1 0.5 0 1-1-0.5 0-1z"/><path class="j" d="m82.5 25q1 0.5 0 1-1-0.5 0-1z"/><path class="j" d="m36.5 27q1 0.5 0 1-1-0.5 0-1z"/><path class="j" d="m91.5 27q1 0.5 0 1-1-0.5 0-1z"/><path class="j" d="m44.5 28q1 0.5 0 1-1-0.5 0-1z"/><path class="j" d="m83.5 28q1 0.5 0 1-1-0.5 0-1z"/><path class="j" d="m44.5 37q1 0.5 0 1-1-0.5 0-1z"/><path class="j" d="m83.5 37q1 0.5 0 1-1-0.5 0-1z"/><path class="j" d="m82.5 40q1 0.5 0 1-1-0.5 0-1z"/><path class="j" d="m38.5 44q1 0.5 0 1-1-0.5 0-1z"/><path class="j" d="m47.5 44q1 0.5 0 1-1-0.5 0-1z"/><path class="j" d="m89.5 44q1 0.5 0 1-1-0.5 0-1z"/><path class="j" d="m39.5 46q1 0.5 0 1-1-0.5 0-1z"/><path class="j" d="m88.5 46q1 0.5 0 1-1-0.5 0-1z"/><path class="j" d="m41.5 49q1 0.5 0 1-1-0.5 0-1z"/><path class="j" d="m86.5 49q1 0.5 0 1-1-0.5 0-1z"/><path class="j" d="m55.5 50q1 0.5 0 1-1-0.5 0-1z"/><path class="j" d="m59.5 52q1 0.5 0 1-1-0.5 0-1z"/><path class="j" d="m68.5 52q1 0.5 0 1-1-0.5 0-1z"/><path class="j" d="m45.5 56q1 0.5 0 1-1-0.5 0-1z"/><path class="j" d="m50.5 63q1 0.5 0 1-1-0.5 0-1z"/><path fill-rule="evenodd" class="k" d="m0 0h130v120h-130zm58 5l-1 1h-2l-1 1h-1l-1 1h-1l-1 1h-1l-3 3q-2 0-2 0 0 0 0 2l-4 4v1l-1 1v1l-1 1v1l-1 1v2l-1 1v13l1 1v2l1 1v1l1 1v1l1 1v1l3 3v1l2 1q1 0 1 0 0 0 0 2l-2 2v1l-1 1q0 1 0 1l-1-1h-2l-1-1h-13l-1 1h-2l-1 1h-2l-1 1h-1l-3 3h-1l-4 4v1l-2 2v1l-2 2v2l-1 1v2l-1 1v13l1 1v2l1 1v2l2 2v1l2 2v1l4 3h1l2 2h1l2 2h2l1 1h2l1 1h13l1-1h2l1-1h2l2-2h1l2-2h1l3-3v-1l2-2v-1l2-2v-2l1-1v-2l1-1v-3h8v3l1 1v2l1 1v2l2 2v1l2 2v1l4 3h1l2 2h1l2 2h2l1 1h2l1 1h13l1-1h2l1-1h2l2-2h1l2-2h1l3-3v-1l2-2v-1l2-2v-2l1-1v-2l1-1v-13l-1-1v-2l-1-1v-2l-2-2v-1l-2-2v-1l-3-4h-1l-2-2h-1l-2-2h-2l-1-1h-2l-1-1h-13l-1 1h-2l-3-2v-1l-1-1v-1l2-2v-1l3-3v-1l1-1v-1l1-1v-1l1-1v-2l1-1v-13l-1-1v-2l-1-1v-1l-1-1v-1l-1-1v-1l-4-4q0-2 0-2 0 0-1 0l-3-3h-1l-1-1h-1l-1-1h-1l-1-1h-2l-1-1z"/><path class="k" d="m61.5 13h5l1 1h3l1 1h1l1 1h1l6.5 6.5v1l1 1v1l1 1v4l1 1v3l-1 1v4l-1 1v1l-1 1v1l-3.5 3.5h-2l-1 1h-1l-2 2q-1.2 0-1.5 0v0.5q0 1.3 0 1.5h-0.5-3l-1 1h-3l-1-1h-3l-1-1h-1l-1-1h-1l-2-2h-1l-4.5-4.5v-1l-1-1v-1l-1-1v-4l-1-1v-3l1-1v-4l1-1v-1l1-1v-1l6.5-6.5h1l1-1h1l1-1h3z"/><path class="k" d="m53.5 59l1 1h2l1 1h13l1-1h2l1-1 1.5 1.5v1l2 2v1l-4 4v1l-2 2v1l-2 2v2l-1 1v2l-1 1v2 0.5h-0.5-7-0.5v-0.5-2l-1-1v-2l-1-1v-2l-2-2v-1l-2-2v-1l-4-4 2-2v-1l1-1q-0.2-1.2 0.5-1.5z"/><path class="k" d="m30.5 67h3l1 1h3l1 1h2l1 1h1l5.5 5.5v1l2 2v2l1 1v3l1 1v3l-1 1v3l-1 1v2l-2 2v1l-4.5 4.5h-1l-2 2h-2l-1 1h-3l-1 1h-3l-1-1h-3l-1-1h-2l-2-2h-1l-4.5-4.5v-1l-2-2v-2l-1-1v-4l-1-1v-1l1-1v-4l1-1v-2l2-2v-1l4.5-4.5h1l2-2h2l1-1h3z"/><path class="k" d="m94.5 67h3l1 1h3l1 1h2l2 2h1l4.5 4.5v1l2 2v2l1 1v3l1 1v3l-1 1v3l-1 1v2l-2 2v1l-4.5 4.5h-1l-2 2h-2l-1 1h-4l-1 1h-1l-1-1h-4l-1-1h-2l-2-2h-1l-4.5-4.5v-1l-2-2v-2l-1-1v-3l-1-1v-3l1-1v-3l1-1v-2l2-2v-1l4.5-4.5h1l2-2h2l1-1h3z"/><path class="l" d="m26.5 59q1.3-0.2 1.5 0.5-0.2 0.8-1.5 0.5-1-0.5 0-1z"/><path class="l" d="m36.5 59q1.3-0.2 1.5 0.5-0.2 0.8-1.5 0.5-1-0.5 0-1z"/><path class="l" d="m20.5 61q1 0.5 0 1-1-0.5 0-1z"/><path class="l" d="m18.5 62q1 0.5 0 1-1-0.5 0-1z"/><path class="l" d="m15.5 64q1 0.5 0 1-1-0.5 0-1z"/><path class="l" d="m27.5 67q1 0.5 0 1-1-0.5 0-1z"/><path class="l" d="m36.5 67q1 0.5 0 1-1-0.5 0-1z"/><path class="l" d="m24.5 68q1 0.5 0 1-1-0.5 0-1z"/><path class="l" d="m22.5 69q1 0.5 0 1-1-0.5 0-1z"/><path class="l" d="m41.5 69q1 0.5 0 1-1-0.5 0-1z"/><path class="l" d="m9.5 70q1 0.5 0 1-1-0.5 0-1z"/><path class="l" d="m20.5 70l0.5 0.5-1.5 1.5-0.5-0.5z"/><path class="l" d="m43.5 70l1.5 1.5-0.5 0.5-1.5-1.5z"/><path class="l" d="m54.5 70q1 0.5 0 1-1-0.5 0-1z"/><path class="l" d="m7.5 73q1 0.5 0 1-1-0.5 0-1z"/><path class="l" d="m56.5 73q1 0.5 0 1-1-0.5 0-1z"/><path class="l" d="m16.5 74l0.5 0.5-1.5 1.5-0.5-0.5z"/><path class="l" d="m47.5 74l1.5 1.5-0.5 0.5-1.5-1.5z"/><path class="l" d="m6.5 75q1 0.5 0 1-1-0.5 0-1z"/><path class="l" d="m57.5 75q1 0.5 0 1-1-0.5 0-1z"/><path class="l" d="m5.5 78q1 0.5 0 1-1-0.5 0-1z"/><path class="l" d="m13.5 79q1 0.5 0 1-1-0.5 0-1z"/><path class="l" d="m50.5 79q1 0.5 0 1-1-0.5 0-1z"/><path class="l" d="m4.5 81q0.8 0.3 0.5 1.5-0.5 1-1 0-0.2-1.2 0.5-1.5z"/><path class="l" d="m59.5 81q0.8 0.3 0.5 1.5-0.5 1-1 0-0.2-1.2 0.5-1.5z"/><path class="l" d="m12.5 82q1 0.5 0 1-1-0.5 0-1z"/><path class="l" d="m51.5 82q1 0.5 0 1-1-0.5 0-1z"/><path class="l" d="m4.5 91q0.8 0.3 0.5 1.5-0.5 1-1 0-0.2-1.2 0.5-1.5z"/><path class="l" d="m12.5 91q1 0.5 0 1-1-0.5 0-1z"/><path class="l" d="m51.5 91q1 0.5 0 1-1-0.5 0-1z"/><path class="l" d="m59.5 91q0.8 0.3 0.5 1.5-0.5 1-1 0-0.2-1.2 0.5-1.5z"/><path class="l" d="m13.5 94q1 0.5 0 1-1-0.5 0-1z"/><path class="l" d="m50.5 94q1 0.5 0 1-1-0.5 0-1z"/><path class="l" d="m14.5 96q1 0.5 0 1-1-0.5 0-1z"/><path class="l" d="m49.5 96q1 0.5 0 1-1-0.5 0-1z"/><path class="l" d="m6.5 98q1 0.5 0 1-1-0.5 0-1z"/><path class="l" d="m15.5 98l1.5 1.5-0.5 0.5-1.5-1.5z"/><path class="l" d="m48.5 98l0.5 0.5-1.5 1.5-0.5-0.5z"/><path class="l" d="m57.5 98q1 0.5 0 1-1-0.5 0-1z"/><path class="l" d="m7.5 100q1 0.5 0 1-1-0.5 0-1z"/><path class="l" d="m56.5 100q1 0.5 0 1-1-0.5 0-1z"/><path class="l" d="m19.5 102l1.5 1.5-0.5 0.5-1.5-1.5z"/><path class="l" d="m44.5 102l0.5 0.5-1.5 1.5-0.5-0.5z"/><path class="l" d="m9.5 103q1 0.5 0 1-1-0.5 0-1z"/><path class="l" d="m54.5 103q1 0.5 0 1-1-0.5 0-1z"/><path class="l" d="m22.5 104q1 0.5 0 1-1-0.5 0-1z"/><path class="l" d="m41.5 104q1 0.5 0 1-1-0.5 0-1z"/><path class="l" d="m24.5 105q1 0.5 0 1-1-0.5 0-1z"/><path class="l" d="m39.5 105q1 0.5 0 1-1-0.5 0-1z"/><path class="l" d="m27.5 106q1 0.5 0 1-1-0.5 0-1z"/><path class="l" d="m36.5 106q1 0.5 0 1-1-0.5 0-1z"/><path class="l" d="m15.5 109q1 0.5 0 1-1-0.5 0-1z"/><path class="l" d="m48.5 109q1 0.5 0 1-1-0.5 0-1z"/><path class="l" d="m18.5 111q1 0.5 0 1-1-0.5 0-1z"/><path class="l" d="m45.5 111q1 0.5 0 1-1-0.5 0-1z"/><path class="l" d="m20.5 112q1 0.5 0 1-1-0.5 0-1z"/><path class="l" d="m43.5 112q1 0.5 0 1-1-0.5 0-1z"/><path class="l" d="m23.5 113q1 0.5 0 1-1-0.5 0-1z"/><path class="l" d="m40.5 113q1 0.5 0 1-1-0.5 0-1z"/><path class="l" d="m26.5 114q1.3-0.2 1.5 0.5-0.2 0.8-1.5 0.5-1-0.5 0-1z"/><path class="l" d="m36.5 114q1.3-0.2 1.5 0.5-0.2 0.8-1.5 0.5-1-0.5 0-1z"/><path class="m" d="m28.5 59q1 0.5 0 1-1-0.5 0-1z"/><path class="m" d="m34.5 59q1.3-0.2 1.5 0.5-0.2 0.8-1.5 0.5-1-0.5 0-1z"/><path class="m" d="m23.5 60q1 0.5 0 1-1-0.5 0-1z"/><path class="m" d="m40.5 60q1 0.5 0 1-1-0.5 0-1z"/><path class="m" d="m42.5 61q1 0.5 0 1-1-0.5 0-1z"/><path class="m" d="m17.5 63q1 0.5 0 1-1-0.5 0-1z"/><path class="m" d="m14.5 65q1 0.5 0 1-1-0.5 0-1z"/><path class="m" d="m49.5 65l1.5 1.5-0.5 0.5-1.5-1.5z"/><path class="m" d="m26.5 67q1 0.5 0 1-1-0.5 0-1z"/><path class="m" d="m37.5 67q1 0.5 0 1-1-0.5 0-1z"/><path class="m" d="m11.5 68l0.5 0.5-1.5 1.5-0.5-0.5z"/><path class="m" d="m23.5 68q1 0.5 0 1-1-0.5 0-1z"/><path class="m" d="m40.5 68q1 0.5 0 1-1-0.5 0-1z"/><path class="m" d="m53.5 69q1 0.5 0 1-1-0.5 0-1z"/><path class="m" d="m55.5 72q1 0.5 0 1-1-0.5 0-1z"/><path class="m" d="m13.5 78q1 0.5 0 1-1-0.5 0-1z"/><path class="m" d="m50.5 78q1 0.5 0 1-1-0.5 0-1z"/><path class="m" d="m58.5 78q1 0.5 0 1-1-0.5 0-1z"/><path class="m" d="m12.5 81q1 0.5 0 1-1-0.5 0-1z"/><path class="m" d="m51.5 81q1 0.5 0 1-1-0.5 0-1z"/><path class="m" d="m4.5 83q1 0.5 0 1-1-0.5 0-1z"/><path class="m" d="m67.5 83q1 0.5 0 1-1-0.5 0-1z"/><path class="m" d="m4.5 90q1 0.5 0 1-1-0.5 0-1z"/><path class="m" d="m12.5 92q1 0.5 0 1-1-0.5 0-1z"/><path class="m" d="m51.5 92q1 0.5 0 1-1-0.5 0-1z"/><path class="m" d="m5.5 94q0.8 0.3 0.5 1.5-0.5 1-1 0-0.2-1.2 0.5-1.5z"/><path class="m" d="m13.5 95q1 0.5 0 1-1-0.5 0-1z"/><path class="m" d="m50.5 95q1 0.5 0 1-1-0.5 0-1z"/><path class="m" d="m58.5 95q1 0.5 0 1-1-0.5 0-1z"/><path class="m" d="m14.5 97q1 0.5 0 1-1-0.5 0-1z"/><path class="m" d="m49.5 97q1 0.5 0 1-1-0.5 0-1z"/><path class="m" d="m8.5 101q1 0.5 0 1-1-0.5 0-1z"/><path class="m" d="m55.5 101q1 0.5 0 1-1-0.5 0-1z"/><path class="m" d="m10.5 104q1 0.5 0 1-1-0.5 0-1z"/><path class="m" d="m53.5 104q1 0.5 0 1-1-0.5 0-1z"/><path class="m" d="m23.5 105q1 0.5 0 1-1-0.5 0-1z"/><path class="m" d="m40.5 105q1 0.5 0 1-1-0.5 0-1z"/><path class="m" d="m26.5 106q1 0.5 0 1-1-0.5 0-1z"/><path class="m" d="m37.5 106q1 0.5 0 1-1-0.5 0-1z"/><path class="m" d="m14.5 108q1 0.5 0 1-1-0.5 0-1z"/><path class="m" d="m49.5 108q1 0.5 0 1-1-0.5 0-1z"/><path class="m" d="m17.5 110q1 0.5 0 1-1-0.5 0-1z"/><path class="m" d="m46.5 110q1 0.5 0 1-1-0.5 0-1z"/><path class="m" d="m28.5 114q1.3-0.2 1.5 0.5-0.2 0.8-1.5 0.5-1-0.5 0-1z"/><path class="m" d="m34.5 114q1.3-0.2 1.5 0.5-0.2 0.8-1.5 0.5-1-0.5 0-1z"/><path class="n" d="m29.5 59h4l0.5 0.5-0.5 0.5h-4q-1-0.5 0-1z"/><path class="n" d="m24.5 60h3l0.5 0.5-0.5 0.5h-3q-1-0.5 0-1z"/><path class="n" d="m36.5 60h3l0.5 0.5-0.5 0.5h-3q-1-0.5 0-1z"/><path class="n" d="m21.5 61q1.3-0.2 1.5 0.5l-1.5 1.5h-1l-1 1h-1l-0.5-0.5 1.5-1.5h1z"/><path class="n" d="m41.5 61q1 0.5 0 1-1-0.5 0-1z"/><path class="n" d="m43.5 62h1l2 2h1l2.5 2.5-0.5 0.5q-1.2 0-1.5 0v-0.5q0-1.2 0-1.5-0.2 0-1.5 0l-2-2q-1.2 0.3-1.5-0.5z"/><path class="n" d="m16.5 64l0.5 0.5-2.5 2.5h-1l-1 1-0.5-0.5 1.5-1.5h1z"/><path class="n" d="m27.5 66h9l0.5 0.5-0.5 0.5h-9q-1-0.5 0-1z"/><path class="n" d="m25.5 67q1 0.5 0 1-1-0.5 0-1z"/><path class="n" d="m38.5 67q1.3-0.2 1.5 0.5-0.2 0.8-1.5 0.5-1-0.5 0-1z"/><path class="n" d="m51.5 67l1.5 1.5v1l2 2-0.5 0.5-2.5-2.5v-1l-1-1z"/><path class="n" d="m22.5 68l0.5 0.5-1.5 1.5h-1l-5 5-0.5-0.5 5.5-5.5h1z"/><path class="n" d="m41.5 68l1 1h1l5.5 5.5-0.5 0.5-5-5h-1l-1.5-1.5z"/><path class="n" d="m11.5 69l0.5 0.5-3.5 3.5-0.5-0.5z"/><path class="n" d="m55.5 73l1.5 1.5v1l1 1v1q-0.5 1-1 0v-1l-1-1v-1l-1-1z"/><path class="n" d="m7.5 74q0.8 0.3 0.5 1.5l-1 1v2l-1 1v2l-0.5 0.5-0.5-0.5v-2l1-1v-2l1-1q-0.2-1.2 0.5-1.5z"/><path class="n" d="m14.5 76q1 0.5 0 1-1-0.5 0-1z"/><path class="n" d="m49.5 76q1 0.5 0 1-1-0.5 0-1z"/><path class="n" d="m12.5 79q0.8 0.3 0.5 1.5-0.5 1-1 0-0.2-1.2 0.5-1.5z"/><path class="n" d="m58.5 79l0.5 0.5v2q-0.5 1-1 0v-2z"/><path class="n" d="m51.5 80q1 0.5 0 1-1-0.5 0-1z"/><path class="n" d="m11.5 82l0.5 0.5v9q-0.5 1-1 0v-9z"/><path class="n" d="m52.5 82l0.5 0.5v8q-0.5 1-1 0v-8z"/><path class="n" d="m60.5 83h6l1.5 1.5v6 0.5h-0.5-7q-1-0.5 0-1h1l1-1h2l1 1 1.5-1.5v-4-0.5h-0.5-4l-1 1-1.5-1.5z"/><path class="n" d="m4.5 84l0.5 0.5v5q-0.5 1-1 0v-5z"/><path class="n" d="m5.5 91l0.5 0.5v2q-0.5 1-1 0v-2z"/><path class="n" d="m58.5 91l0.5 0.5v3q-0.5 1-1 0v-3z"/><path class="n" d="m12.5 93q0.8 0.3 0.5 1.5-0.5 1-1 0-0.2-1.2 0.5-1.5z"/><path class="n" d="m51.5 93q0.8 0.3 0.5 1.5-0.5 1-1 0-0.2-1.2 0.5-1.5z"/><path class="n" d="m6.5 95l0.5 0.5v2l1 1v1l1 1-0.5 0.5-1.5-1.5v-1l-1-1v-2z"/><path class="n" d="m13.5 96q1 0.5 0 1-1-0.5 0-1z"/><path class="n" d="m50.5 96q1 0.5 0 1-1-0.5 0-1z"/><path class="n" d="m57.5 96q0.8 0.3 0.5 1.5l-1 1v1l-1.5 1.5-0.5-0.5 1-1v-1l1-1q-0.2-1.2 0.5-1.5z"/><path class="n" d="m14.5 98l5.5 5.5-0.5 0.5-5.5-5.5z"/><path class="n" d="m49.5 98l0.5 0.5-5.5 5.5-0.5-0.5z"/><path class="n" d="m9.5 102q1 0.5 0 1-1-0.5 0-1z"/><path class="n" d="m54.5 102q1 0.5 0 1-1-0.5 0-1z"/><path class="n" d="m21.5 104l1.5 1.5-0.5 0.5-1.5-1.5z"/><path class="n" d="m42.5 104l0.5 0.5-1.5 1.5-0.5-0.5z"/><path class="n" d="m11.5 105l1 1h1l3.5 3.5-0.5 0.5-2-2h-1l-2.5-2.5z"/><path class="n" d="m52.5 105l0.5 0.5-2.5 2.5h-1l-2 2-0.5-0.5 3.5-3.5h1z"/><path class="n" d="m24.5 106q1.3-0.2 1.5 0.5-0.2 0.8-1.5 0.5-1-0.5 0-1z"/><path class="n" d="m38.5 106q1.3-0.2 1.5 0.5-0.2 0.8-1.5 0.5-1-0.5 0-1z"/><path class="n" d="m27.5 107h9l0.5 0.5-0.5 0.5h-9q-1-0.5 0-1z"/><path class="n" d="m18.5 110l1.5 1.5-0.5 0.5-1.5-1.5z"/><path class="n" d="m45.5 110l0.5 0.5-1.5 1.5-0.5-0.5z"/><path class="n" d="m21.5 112q1.3-0.2 1.5 0.5-0.2 0.8-1.5 0.5-1-0.5 0-1z"/><path class="n" d="m41.5 112q1.3-0.2 1.5 0.5-0.2 0.8-1.5 0.5-1-0.5 0-1z"/><path class="n" d="m24.5 113q1.3-0.2 1.5 0.5-0.2 0.8-1.5 0.5-1-0.5 0-1z"/><path class="n" d="m38.5 113q1.3-0.2 1.5 0.5-0.2 0.8-1.5 0.5-1-0.5 0-1z"/><path class="n" d="m30.5 114h3l0.5 0.5-0.5 0.5h-3q-1-0.5 0-1z"/><path fill-rule="evenodd" class="o" d="m75.5 48h1l1.5 1.5v1l2 2v1l3 3v1l2 2q0 1.3 0 1.5h2.5l1-1h4l1-1h5l1 1h4l1 1h2l1 1h1l2 2h1l2 2h1l2.5 2.5v1l2 2v1l2 2v1l1 1v2l1 1v5l1 1v3l-1 1v5l-1 1v2l-1 1v1l-2 2v1l-3 3q0 1.3 0 1.5-0.2 0-1.5 0l-3 3h-1l-2 2h-1l-1 1h-2l-1 1h-4l-1 1h-4l-1-1h-5l-1-1h-2l-1-1h-1l-2-2h-1l-3-3q-1.2 0-1.5 0 0-0.2 0-1.5l-3-3v-1l-2-2v-1l-1-1v-3l-1-1v-14l1-1v-2l1-1v-1l2-2v-1l3-3q0-1.2 0-1.5 0.3 0 1.5 0l1.5-1.5v-2l-2-2v-1l-1-1v-1l-1-1v-1l-1-1v-1l-2-2v-2l1.5-1.5h1zm15.5 19l-1 1h-1l-1 1h-1l-1 1h-1l-6 6v1l-2 2v2l-1 1v11l1 1v2l1 1v1l7 6h1l2 2h2l1 1h11l1-1h2l2-2h1l6-6v-1l1-1v-2l1-1v-11l-1-1v-2l-2-2v-1l-5-6h-1l-2-2h-2l-1-1z"/><path class="p" d="m57.5 5q1 0.5 0 1-1-0.5 0-1z"/><path class="p" d="m70.5 5q1 0.5 0 1-1-0.5 0-1z"/><path class="p" d="m54.5 6q1 0.5 0 1-1-0.5 0-1z"/><path class="p" d="m73.5 6q1 0.5 0 1-1-0.5 0-1z"/><path class="p" d="m48.5 9q1 0.5 0 1-1-0.5 0-1z"/><path class="p" d="m79.5 9q1 0.5 0 1-1-0.5 0-1z"/><path class="p" d="m44.5 12q1 0.5 0 1-1-0.5 0-1z"/><path class="p" d="m83.5 12q1 0.5 0 1-1-0.5 0-1z"/><path class="p" d="m60.5 13q1 0.5 0 1-1-0.5 0-1z"/><path class="p" d="m67.5 13q1 0.5 0 1-1-0.5 0-1z"/><path class="p" d="m56.5 14q1 0.5 0 1-1-0.5 0-1z"/><path class="p" d="m71.5 14q1 0.5 0 1-1-0.5 0-1z"/><path class="p" d="m54.5 15q1 0.5 0 1-1-0.5 0-1z"/><path class="p" d="m73.5 15q1 0.5 0 1-1-0.5 0-1z"/><path class="p" d="m40.5 17q1 0.5 0 1-1-0.5 0-1z"/><path class="p" d="m51.5 17l0.5 0.5-3.5 3.5-0.5-0.5z"/><path class="p" d="m76.5 17l3.5 3.5-0.5 0.5-3.5-3.5z"/><path class="p" d="m87.5 17q1 0.5 0 1-1-0.5 0-1z"/><path class="p" d="m37.5 23q1 0.5 0 1-1-0.5 0-1z"/><path class="p" d="m46.5 23q1 0.5 0 1-1-0.5 0-1z"/><path class="p" d="m81.5 23q1 0.5 0 1-1-0.5 0-1z"/><path class="p" d="m90.5 23q1 0.5 0 1-1-0.5 0-1z"/><path class="p" d="m36.5 26q1 0.5 0 1-1-0.5 0-1z"/><path class="p" d="m91.5 26q1 0.5 0 1-1-0.5 0-1z"/><path class="p" d="m44.5 29q1 0.5 0 1-1-0.5 0-1z"/><path class="p" d="m83.5 29q1 0.5 0 1-1-0.5 0-1z"/><path class="p" d="m44.5 36q1 0.5 0 1-1-0.5 0-1z"/><path class="p" d="m83.5 36q1 0.5 0 1-1-0.5 0-1z"/><path class="p" d="m36.5 38q0.8 0.3 0.5 1.5-0.5 1-1 0-0.2-1.2 0.5-1.5z"/><path class="p" d="m91.5 38q0.8 0.3 0.5 1.5-0.5 1-1 0-0.2-1.2 0.5-1.5z"/><path class="p" d="m45.5 40q1 0.5 0 1-1-0.5 0-1z"/><path class="p" d="m37.5 42q1 0.5 0 1-1-0.5 0-1z"/><path class="p" d="m46.5 42q1 0.5 0 1-1-0.5 0-1z"/><path class="p" d="m81.5 42q1 0.5 0 1-1-0.5 0-1z"/><path class="p" d="m90.5 42q1 0.5 0 1-1-0.5 0-1z"/><path class="p" d="m48.5 45l2.5 2.5-0.5 0.5-2.5-2.5z"/><path class="p" d="m79.5 45l0.5 0.5-1.5 1.5-0.5-0.5z"/><path class="p" d="m40.5 48q1 0.5 0 1-1-0.5 0-1z"/><path class="p" d="m52.5 48q1 0.5 0 1-1-0.5 0-1z"/><path class="p" d="m87.5 48q1 0.5 0 1-1-0.5 0-1z"/><path class="p" d="m57.5 51q1 0.5 0 1-1-0.5 0-1z"/><path class="p" d="m43.5 52l1.5 1.5-0.5 0.5-1.5-1.5z"/><path class="p" d="m60.5 52q1.3-0.2 1.5 0.5-0.2 0.8-1.5 0.5-1-0.5 0-1z"/><path class="p" d="m66.5 52q1.3-0.2 1.5 0.5-0.2 0.8-1.5 0.5-1-0.5 0-1z"/><path class="p" d="m84.5 52l0.5 0.5-1.5 1.5-0.5-0.5z"/><path class="p" d="m44.5 57q1 0.5 0 1-1-0.5 0-1z"/><path class="p" d="m43.5 59q1 0.5 0 1-1-0.5 0-1z"/><path class="p" d="m54.5 59q1 0.5 0 1-1-0.5 0-1z"/><path class="p" d="m73.5 59q1 0.5 0 1-1-0.5 0-1z"/><path class="p" d="m52.5 60q1 0.5 0 1-1-0.5 0-1z"/><path class="p" d="m57.5 60q1.3-0.2 1.5 0.5-0.2 0.8-1.5 0.5-1-0.5 0-1z"/><path class="p" d="m69.5 60q1.3-0.2 1.5 0.5-0.2 0.8-1.5 0.5-1-0.5 0-1z"/><path class="p" d="m51.5 62q1 0.5 0 1-1-0.5 0-1z"/><path class="q" d="m76.5 47q1 0.5 0 1-1-0.5 0-1z"/><path class="q" d="m71.5 50q1 0.5 0 1-1-0.5 0-1z"/><path class="q" d="m83.5 57q1 0.5 0 1-1-0.5 0-1z"/><path class="q" d="m92.5 59q1 0.5 0 1-1-0.5 0-1z"/><path class="q" d="m99.5 59q1 0.5 0 1-1-0.5 0-1z"/><path class="q" d="m76.5 60q1 0.5 0 1-1-0.5 0-1z"/><path class="q" d="m78.5 63q1 0.5 0 1-1-0.5 0-1z"/><path class="q" d="m110.5 63q1 0.5 0 1-1-0.5 0-1z"/><path class="q" d="m78.5 65l0.5 0.5-1.5 1.5-0.5-0.5z"/><path class="q" d="m113.5 65q1 0.5 0 1-1-0.5 0-1z"/><path class="q" d="m90.5 67q1 0.5 0 1-1-0.5 0-1z"/><path class="q" d="m101.5 67q1 0.5 0 1-1-0.5 0-1z"/><path class="q" d="m75.5 68l0.5 0.5-1.5 1.5-0.5-0.5z"/><path class="q" d="m104.5 68q1 0.5 0 1-1-0.5 0-1z"/><path class="q" d="m117.5 69q1 0.5 0 1-1-0.5 0-1z"/><path class="q" d="m84.5 70q1 0.5 0 1-1-0.5 0-1z"/><path class="q" d="m72.5 72q1 0.5 0 1-1-0.5 0-1z"/><path class="q" d="m119.5 72q1 0.5 0 1-1-0.5 0-1z"/><path class="q" d="m77.5 78q1 0.5 0 1-1-0.5 0-1z"/><path class="q" d="m114.5 78q1 0.5 0 1-1-0.5 0-1z"/><path class="q" d="m76.5 81q1 0.5 0 1-1-0.5 0-1z"/><path class="q" d="m115.5 81q1 0.5 0 1-1-0.5 0-1z"/><path class="q" d="m123.5 83q0.8 0.3 0.5 1.5-0.5 1-1 0-0.2-1.2 0.5-1.5z"/><path class="q" d="m123.5 89q0.8 0.3 0.5 1.5-0.5 1-1 0-0.2-1.2 0.5-1.5z"/><path class="q" d="m68.5 90q1 0.5 0 1-1-0.5 0-1z"/><path class="q" d="m76.5 92q1 0.5 0 1-1-0.5 0-1z"/><path class="q" d="m115.5 92q1 0.5 0 1-1-0.5 0-1z"/><path class="q" d="m69.5 94q1 0.5 0 1-1-0.5 0-1z"/><path class="q" d="m77.5 95q1 0.5 0 1-1-0.5 0-1z"/><path class="q" d="m114.5 95q1 0.5 0 1-1-0.5 0-1z"/><path class="q" d="m122.5 95q1 0.5 0 1-1-0.5 0-1z"/><path class="q" d="m78.5 97q1 0.5 0 1-1-0.5 0-1z"/><path class="q" d="m113.5 97q1 0.5 0 1-1-0.5 0-1z"/><path class="q" d="m72.5 101q1 0.5 0 1-1-0.5 0-1z"/><path class="q" d="m119.5 101q1 0.5 0 1-1-0.5 0-1z"/><path class="q" d="m74.5 104l1.5 1.5-0.5 0.5-1.5-1.5z"/><path class="q" d="m117.5 104l0.5 0.5-1.5 1.5-0.5-0.5z"/><path class="q" d="m87.5 105q1 0.5 0 1-1-0.5 0-1z"/><path class="q" d="m104.5 105q1 0.5 0 1-1-0.5 0-1z"/><path class="q" d="m90.5 106q1 0.5 0 1-1-0.5 0-1z"/><path class="q" d="m101.5 106q1 0.5 0 1-1-0.5 0-1z"/><path class="q" d="m77.5 107l1.5 1.5-0.5 0.5-1.5-1.5z"/><path class="q" d="m114.5 107l0.5 0.5-1.5 1.5-0.5-0.5z"/><path class="q" d="m81.5 110q1 0.5 0 1-1-0.5 0-1z"/><path class="q" d="m110.5 110q1 0.5 0 1-1-0.5 0-1z"/><path class="q" d="m92.5 114q1.3-0.2 1.5 0.5-0.2 0.8-1.5 0.5-1-0.5 0-1z"/><path class="q" d="m99.5 114q1 0.5 0 1-1-0.5 0-1z"/><path class="r" d="m77.5 47q1 0.5 0 1-1-0.5 0-1z"/><path class="r" d="m74.5 48q1 0.5 0 1-1-0.5 0-1z"/><path class="r" d="m91.5 59q1 0.5 0 1-1-0.5 0-1z"/><path class="r" d="m100.5 59q1 0.5 0 1-1-0.5 0-1z"/><path class="r" d="m85.5 60q1 0.5 0 1-1-0.5 0-1z"/><path class="r" d="m87.5 60q1 0.5 0 1-1-0.5 0-1z"/><path class="r" d="m104.5 60q1 0.5 0 1-1-0.5 0-1z"/><path class="r" d="m107.5 61q1 0.5 0 1-1-0.5 0-1z"/><path class="r" d="m77.5 62q1 0.5 0 1-1-0.5 0-1z"/><path class="r" d="m112.5 64q1 0.5 0 1-1-0.5 0-1z"/><path class="r" d="m73.5 70q1 0.5 0 1-1-0.5 0-1z"/><path class="r" d="m107.5 70q1 0.5 0 1-1-0.5 0-1z"/><path class="r" d="m118.5 70q1 0.5 0 1-1-0.5 0-1z"/><path class="r" d="m71.5 73q1 0.5 0 1-1-0.5 0-1z"/><path class="r" d="m120.5 73q1 0.5 0 1-1-0.5 0-1z"/><path class="r" d="m79.5 75q1 0.5 0 1-1-0.5 0-1z"/><path class="r" d="m112.5 75q1 0.5 0 1-1-0.5 0-1z"/><path class="r" d="m121.5 75q1 0.5 0 1-1-0.5 0-1z"/><path class="r" d="m69.5 78q1 0.5 0 1-1-0.5 0-1z"/><path class="r" d="m122.5 78q1 0.5 0 1-1-0.5 0-1z"/><path class="r" d="m68.5 82q1 0.5 0 1-1-0.5 0-1z"/><path class="r" d="m123.5 82q1 0.5 0 1-1-0.5 0-1z"/><path class="r" d="m68.5 91q1 0.5 0 1-1-0.5 0-1z"/><path class="r" d="m115.5 91q1 0.5 0 1-1-0.5 0-1z"/><path class="r" d="m123.5 91q1 0.5 0 1-1-0.5 0-1z"/><path class="r" d="m69.5 95q1 0.5 0 1-1-0.5 0-1z"/><path class="r" d="m70.5 98q1 0.5 0 1-1-0.5 0-1z"/><path class="r" d="m79.5 98q1 0.5 0 1-1-0.5 0-1z"/><path class="r" d="m112.5 98q1 0.5 0 1-1-0.5 0-1z"/><path class="r" d="m121.5 98q1 0.5 0 1-1-0.5 0-1z"/><path class="r" d="m120.5 100q1 0.5 0 1-1-0.5 0-1z"/><path class="r" d="m73.5 103q1 0.5 0 1-1-0.5 0-1z"/><path class="r" d="m84.5 103q1 0.5 0 1-1-0.5 0-1z"/><path class="r" d="m107.5 103q1 0.5 0 1-1-0.5 0-1z"/><path class="r" d="m118.5 103q1 0.5 0 1-1-0.5 0-1z"/><path class="r" d="m91.5 106q1 0.5 0 1-1-0.5 0-1z"/><path class="r" d="m100.5 106q1 0.5 0 1-1-0.5 0-1z"/><path class="r" d="m79.5 109q1 0.5 0 1-1-0.5 0-1z"/><path class="r" d="m112.5 109q1 0.5 0 1-1-0.5 0-1z"/><path class="r" d="m87.5 113q1 0.5 0 1-1-0.5 0-1z"/><path class="r" d="m104.5 113q1 0.5 0 1-1-0.5 0-1z"/><path class="r" d="m91.5 114q1 0.5 0 1-1-0.5 0-1z"/><path class="r" d="m100.5 114q1 0.5 0 1-1-0.5 0-1z"/><path class="s" d="m43.5 60q0.8 0.3 0.5 1.5-0.5 1-1 0-0.2-1.2 0.5-1.5z"/><path class="s" d="m45.5 62l1 1h1l1 1q1.3-0.2 1.5 0.5-0.2 0.8-1.5 0.5l-1-1h-1l-1.5-1.5z"/><path class="t" d="m61.5 5h5l1 1h4l0.5 0.5-0.5 0.5h-4l-1-1h-5l-1 1h-4q-1-0.5 0-1h4z"/><path class="t" d="m53.5 7q1.3-0.2 1.5 0.5-0.2 0.8-1.5 0.5-1-0.5 0-1z"/><path class="t" d="m73.5 7q1.3-0.2 1.5 0.5-0.2 0.8-1.5 0.5-1-0.5 0-1z"/><path class="t" d="m51.5 8l0.5 0.5-1.5 1.5h-1l-2 2-0.5-0.5 2.5-2.5h1z"/><path class="t" d="m76.5 8l1 1h1l3 3h1l2.5 2.5v1l3 3v1l1 1v1l1 1v2l1 1v3q-0.5 1-1 0v-3l-1-1v-2l-1-1v-1l-1-1v-1l-8.5-8.5h-1l-1.5-1.5z"/><path class="t" d="m45.5 12q0.8 0.3 0.5 1.5l-5 5v1l-1 1v1l-1 1v2l-1 1v3l-0.5 0.5-0.5-0.5v-3l1-1v-2l1-1v-1l1-1v-1l3-3v-1z"/><path class="t" d="m59.5 12h9l0.5 0.5-0.5 0.5h-9q-1-0.5 0-1z"/><path class="t" d="m57.5 13q1 0.5 0 1-1-0.5 0-1z"/><path class="t" d="m70.5 13q1 0.5 0 1-1-0.5 0-1z"/><path class="t" d="m54.5 14l0.5 0.5-1.5 1.5h-1l-5.5 5.5q0.3 1.3-0.5 1.5-0.7-0.2-0.5-1.5l2-2q0-1.2 0-1.5 0.3 0 1.5 0l3-3h1z"/><path class="t" d="m72.5 14h1l1 1h1l6.5 6.5q0.3 1.3-0.5 1.5-0.7-0.2-0.5-1.5l-5.5-5.5h-1l-1-1h-1q-1-0.5 0-1z"/><path class="t" d="m45.5 24l0.5 0.5-1 1v1l-1 1v11l1 1v1l1 1v1l1 1v1l3 3-0.5 0.5q-1.2 0-1.5 0 0-0.2 0-1.5l-3-3v-2l-1-1v-1l-1-1v-11l1-1v-1z"/><path class="t" d="m82.5 24l1.5 1.5v1l1 1v11l-1 1v1l-1 1v2l-3 3v3l2.5 2.5 4.5-4.5v-1l1-1v-1l1-1q-0.2-1.2 0.5-1.5 0.8 0.3 0.5 1.5l-1 1v1l-1 1v1l-3 3v1l-1.5 1.5h-2l-1.5-1.5v-1l-2-2v-1l3-3v-1l1-1v-1l1-1v-1l1-1v-11l-1-1v-1l-1-1z"/><path class="t" d="m36.5 30l0.5 0.5v5q-0.5 1-1 0v-5z"/><path class="t" d="m91.5 30l0.5 0.5v5q-0.5 1-1 0v-5z"/><path class="t" d="m37.5 38l0.5 0.5v2q-0.5 1-1 0v-2z"/><path class="t" d="m90.5 38l0.5 0.5v2q-0.5 1-1 0v-2z"/><path class="t" d="m38.5 42q0.8 0.3 0.5 1.5l2 2v2l2 2-0.5 0.5-2.5-2.5v-1l-1-1v-1l-1-1q-0.2-1.2 0.5-1.5z"/><path class="t" d="m51.5 48l2 2h1l1 1h1l2 2h11l1-1 1.5 1.5v1l1 1v1l1 1q0 1.3 0 1.5-0.2 0-1.5 0l-1 1h-3q-1-0.5 0-1h3l1.5-1.5-2-2q0-1.2 0-1.5h-0.5-12l-2-2h-1l-1-1h-1l-2.5-2.5z"/><path class="t" d="m43.5 51l3.5 3.5v1q-0.5 1-1 0v-1l-3-3z"/><path class="t" d="m45.5 57q1 0.5 0 1-1-0.5 0-1z"/><path class="t" d="m52 58h0.5 2l0.5 0.5q-0.2 0.8-1.5 0.5l-2.5 2.5v1l-1.5 1.5h-1l-1-1h-1l-1-1q-1.2 0-1.5 0v-0.5-2l0.5-0.5 0.5 0.5q0 1.3 0 1.5 0.3 0 1.5 0l2 2q1.3 0 1.5 0 0-0.2 0-1.5l2-2q0-1.2 0-1.5z"/><path class="t" d="m56.5 59h2l0.5 0.5-0.5 0.5h-2q-1-0.5 0-1z"/><path class="t" d="m62.5 59l1 1 1-1h1l1.5 1.5-0.5 0.5h-5l-0.5-0.5z"/><path class="u" d="m75.5 47q1 0.5 0 1-1-0.5 0-1z"/><path class="u" d="m25.5 59q1 0.5 0 1-1-0.5 0-1z"/><path class="u" d="m38.5 59q1 0.5 0 1-1-0.5 0-1z"/><path class="u" d="m22.5 60q1 0.5 0 1-1-0.5 0-1z"/><path class="u" d="m41.5 60q1 0.5 0 1-1-0.5 0-1z"/><path class="u" d="m105.5 60q1 0.5 0 1-1-0.5 0-1z"/><path class="u" d="m16.5 63q1 0.5 0 1-1-0.5 0-1z"/><path class="u" d="m78.5 64q1 0.5 0 1-1-0.5 0-1z"/><path class="u" d="m12.5 66l0.5 0.5-1.5 1.5-0.5-0.5z"/><path class="u" d="m51.5 66l1.5 1.5-0.5 0.5-1.5-1.5z"/><path class="u" d="m28.5 67q1 0.5 0 1-1-0.5 0-1z"/><path class="u" d="m35.5 67q1 0.5 0 1-1-0.5 0-1z"/><path class="u" d="m92.5 67q1 0.5 0 1-1-0.5 0-1z"/><path class="u" d="m99.5 67q1 0.5 0 1-1-0.5 0-1z"/><path class="u" d="m25.5 68q1 0.5 0 1-1-0.5 0-1z"/><path class="u" d="m39.5 68q1 0.5 0 1-1-0.5 0-1z"/><path class="u" d="m8.5 71q1 0.5 0 1-1-0.5 0-1z"/><path class="u" d="m55.5 71q1 0.5 0 1-1-0.5 0-1z"/><path class="u" d="m72.5 71q1 0.5 0 1-1-0.5 0-1z"/><path class="u" d="m18.5 72l0.5 0.5-1.5 1.5-0.5-0.5z"/><path class="u" d="m45.5 72l1.5 1.5-0.5 0.5-1.5-1.5z"/><path class="u" d="m82.5 72l0.5 0.5-1.5 1.5-0.5-0.5z"/><path class="u" d="m109.5 72l1.5 1.5-0.5 0.5-1.5-1.5z"/><path class="u" d="m5.5 77q1 0.5 0 1-1-0.5 0-1z"/><path class="u" d="m14.5 77q1 0.5 0 1-1-0.5 0-1z"/><path class="u" d="m49.5 77q1 0.5 0 1-1-0.5 0-1z"/><path class="u" d="m58.5 77q1 0.5 0 1-1-0.5 0-1z"/><path class="u" d="m69.5 77q1 0.5 0 1-1-0.5 0-1z"/><path class="u" d="m4.5 80q1 0.5 0 1-1-0.5 0-1z"/><path class="u" d="m59.5 80q1 0.5 0 1-1-0.5 0-1z"/><path class="u" d="m123.5 80q1 0.5 0 1-1-0.5 0-1z"/><path class="u" d="m12.5 83q0.8 0.3 0.5 1.5-0.5 1-1 0-0.2-1.2 0.5-1.5z"/><path class="u" d="m51.5 83q1 0.5 0 1-1-0.5 0-1z"/><path class="u" d="m76.5 83q1 0.5 0 1-1-0.5 0-1z"/><path class="u" d="m115.5 83q1 0.5 0 1-1-0.5 0-1z"/><path class="u" d="m12.5 89q0.8 0.3 0.5 1.5-0.5 1-1 0-0.2-1.2 0.5-1.5z"/><path class="u" d="m51.5 90q1 0.5 0 1-1-0.5 0-1z"/><path class="u" d="m76.5 90q1 0.5 0 1-1-0.5 0-1z"/><path class="u" d="m115.5 90q1 0.5 0 1-1-0.5 0-1z"/><path class="u" d="m4.5 93q1 0.5 0 1-1-0.5 0-1z"/><path class="u" d="m59.5 93q1 0.5 0 1-1-0.5 0-1z"/><path class="u" d="m5.5 96q1 0.5 0 1-1-0.5 0-1z"/><path class="u" d="m58.5 96q1 0.5 0 1-1-0.5 0-1z"/><path class="u" d="m69.5 96q1 0.5 0 1-1-0.5 0-1z"/><path class="u" d="m122.5 96q1 0.5 0 1-1-0.5 0-1z"/><path class="u" d="m17.5 100l1.5 1.5-0.5 0.5-1.5-1.5z"/><path class="u" d="m46.5 100l0.5 0.5-1.5 1.5-0.5-0.5z"/><path class="u" d="m81.5 100l1.5 1.5-0.5 0.5-1.5-1.5z"/><path class="u" d="m110.5 100l0.5 0.5-1.5 1.5-0.5-0.5z"/><path class="u" d="m8.5 102q1 0.5 0 1-1-0.5 0-1z"/><path class="u" d="m55.5 102q1 0.5 0 1-1-0.5 0-1z"/><path class="u" d="m10.5 105l3.5 3.5-0.5 0.5-3.5-3.5z"/><path class="u" d="m53.5 105l0.5 0.5-3.5 3.5-0.5-0.5z"/><path class="u" d="m28.5 106q1.3-0.2 1.5 0.5-0.2 0.8-1.5 0.5-1-0.5 0-1z"/><path class="u" d="m34.5 106q1.3-0.2 1.5 0.5-0.2 0.8-1.5 0.5-1-0.5 0-1z"/><path class="u" d="m92.5 106q1 0.5 0 1-1-0.5 0-1z"/><path class="u" d="m99.5 106q1 0.5 0 1-1-0.5 0-1z"/><path class="u" d="m16.5 110q1 0.5 0 1-1-0.5 0-1z"/><path class="u" d="m47.5 110q1 0.5 0 1-1-0.5 0-1z"/><path class="u" d="m22.5 113q1 0.5 0 1-1-0.5 0-1z"/><path class="u" d="m41.5 113q1 0.5 0 1-1-0.5 0-1z"/><path class="u" d="m86.5 113q1 0.5 0 1-1-0.5 0-1z"/><path class="u" d="m25.5 114q1 0.5 0 1-1-0.5 0-1z"/><path class="u" d="m38.5 114q1 0.5 0 1-1-0.5 0-1z"/><path class="v" d="m59.5 5q1.3-0.2 1.5 0.5-0.2 0.8-1.5 0.5-1-0.5 0-1z"/><path class="v" d="m67.5 5q1.3-0.2 1.5 0.5-0.2 0.8-1.5 0.5-1-0.5 0-1z"/><path class="v" d="m55.5 6q1 0.5 0 1-1-0.5 0-1z"/><path class="v" d="m72.5 6q1 0.5 0 1-1-0.5 0-1z"/><path class="v" d="m47.5 10l0.5 0.5-1.5 1.5-0.5-0.5z"/><path class="v" d="m80.5 10l1.5 1.5-0.5 0.5-1.5-1.5z"/><path class="v" d="m58.5 13q1 0.5 0 1-1-0.5 0-1z"/><path class="v" d="m69.5 13q1 0.5 0 1-1-0.5 0-1z"/><path class="v" d="m55.5 14q1 0.5 0 1-1-0.5 0-1z"/><path class="v" d="m42.5 15q1 0.5 0 1-1-0.5 0-1z"/><path class="v" d="m85.5 15q1 0.5 0 1-1-0.5 0-1z"/><path class="v" d="m47.5 21q1 0.5 0 1-1-0.5 0-1z"/><path class="v" d="m80.5 21q1 0.5 0 1-1-0.5 0-1z"/><path class="v" d="m37.5 24q1 0.5 0 1-1-0.5 0-1z"/><path class="v" d="m90.5 24q1 0.5 0 1-1-0.5 0-1z"/><path class="v" d="m44.5 27q1 0.5 0 1-1-0.5 0-1z"/><path class="v" d="m83.5 27q1 0.5 0 1-1-0.5 0-1z"/><path class="v" d="m36.5 28q0.8 0.3 0.5 1.5-0.5 1-1 0-0.2-1.2 0.5-1.5z"/><path class="v" d="m91.5 28q0.8 0.3 0.5 1.5-0.5 1-1 0-0.2-1.2 0.5-1.5z"/><path class="v" d="m36.5 36q0.8 0.3 0.5 1.5-0.5 1-1 0-0.2-1.2 0.5-1.5z"/><path class="v" d="m91.5 36q0.8 0.3 0.5 1.5-0.5 1-1 0-0.2-1.2 0.5-1.5z"/><path class="v" d="m44.5 38q1 0.5 0 1-1-0.5 0-1z"/><path class="v" d="m83.5 38q1 0.5 0 1-1-0.5 0-1z"/><path class="v" d="m37.5 41q1 0.5 0 1-1-0.5 0-1z"/><path class="v" d="m90.5 41q1 0.5 0 1-1-0.5 0-1z"/><path class="v" d="m80.5 44q1 0.5 0 1-1-0.5 0-1z"/><path class="v" d="m53.5 49q1 0.5 0 1-1-0.5 0-1z"/><path class="v" d="m42.5 50q1 0.5 0 1-1-0.5 0-1z"/><path class="v" d="m85.5 50q1 0.5 0 1-1-0.5 0-1z"/><path class="v" d="m58.5 52q1 0.5 0 1-1-0.5 0-1z"/><path class="v" d="m69.5 52q1 0.5 0 1-1-0.5 0-1z"/><path class="v" d="m44.5 58q1 0.5 0 1-1-0.5 0-1z"/><path class="v" d="m55.5 59q1 0.5 0 1-1-0.5 0-1z"/><path class="v" d="m72.5 59q1 0.5 0 1-1-0.5 0-1z"/><path class="v" d="m59.5 60q1.3-0.2 1.5 0.5-0.2 0.8-1.5 0.5-1-0.5 0-1z"/><path class="v" d="m67.5 60q1.3-0.2 1.5 0.5-0.2 0.8-1.5 0.5-1-0.5 0-1z"/><path class="v" d="m51.5 61q1 0.5 0 1-1-0.5 0-1z"/></svg>